<!-- created by svgstack.com | Attribution is required. --><svg width="100" height="100" viewBox="0 0 100 100" fill="none" xmlns="http://www.w3.org/2000/svg"><path d="M64.5312 29.5313C59.5585 29.5297 54.6796 30.885 50.4202 33.4511C46.1607 36.0172 42.6822 39.6969 40.3593 44.0938C37.509 42.4272 34.313 41.4401 31.0193 41.209C27.7257 40.9778 24.4231 41.509 21.368 42.761C18.3129 44.0131 15.5875 45.9525 13.4034 48.4286C11.2192 50.9047 9.63522 53.8509 8.77427 57.0384C7.91332 60.226 7.79861 63.569 8.43906 66.808C9.07951 70.0471 10.4579 73.0949 12.4671 75.7149C14.4764 78.3349 17.0625 80.4565 20.0246 81.9151C22.9867 83.3736 26.2451 84.1298 29.5468 84.125L64.5312 84.2188C71.7832 84.2188 78.7382 81.3379 83.8661 76.2099C88.9941 71.082 91.8749 64.127 91.8749 56.875C91.8749 49.623 88.9941 42.668 83.8661 37.5401C78.7382 32.4121 71.7832 29.5313 64.5312 29.5313Z" fill="url(#paint0_linear_2002_5)"/><path d="M64.531 30.0313H64.5312C71.6506 30.0313 78.4784 32.8594 83.5126 37.8936C88.5468 42.9278 91.3749 49.7556 91.3749 56.875C91.3749 63.9944 88.5468 70.8222 83.5126 75.8564C78.4787 80.8903 71.6514 83.7184 64.5325 83.7188C64.5321 83.7188 64.5316 83.7188 64.5312 83.7188L29.5482 83.625L29.5461 83.625C26.3212 83.6297 23.1386 82.8911 20.2454 81.4665C17.3523 80.0419 14.8264 77.9696 12.8639 75.4106C10.9014 72.8516 9.5551 69.8747 8.92956 66.711C8.30402 63.5474 8.41606 60.2821 9.25697 57.1688C10.0979 54.0555 11.645 51.1779 13.7783 48.7594C15.9116 46.3409 18.5736 44.4467 21.5576 43.2237C24.5416 42.0007 27.7674 41.482 30.9843 41.7078C34.2013 41.9335 37.323 42.8977 40.1069 44.5254L40.5576 44.7889L40.8014 44.3273C43.0818 40.0109 46.4967 36.3986 50.6782 33.8794C54.8597 31.3602 59.6493 30.0297 64.531 30.0313Z" stroke="#8FDAFF" stroke-opacity="0.1"/><path d="M35.3434 83.3328C46.7713 80.1399 53.447 68.2875 50.2542 56.8597C47.0613 45.4318 35.2089 38.7561 23.7811 41.9489C12.3532 45.1418 5.67744 56.9942 8.8703 68.422C12.0632 79.8499 23.9156 86.5257 35.3434 83.3328Z" fill="url(#paint1_linear_2002_5)"/><path d="M49.7726 56.9942C52.8912 68.1561 46.3708 79.7327 35.2089 82.8512C24.047 85.9698 12.4704 79.4494 9.35185 68.2875C6.2333 57.1256 12.7537 45.549 23.9156 42.4305C35.0775 39.3119 46.6541 45.8323 49.7726 56.9942Z" stroke="#8FDAFF" stroke-opacity="0.1"/><defs><linearGradient id="paint0_linear_2002_5" x1="71.4374" y1="86.5469" x2="38.4843" y2="43.875" gradientUnits="userSpaceOnUse"><stop stop-color="#77D2FF" stop-opacity="0.95"/><stop offset="1" stop-color="#EAF8FF"/></linearGradient><linearGradient id="paint1_linear_2002_5" x1="20.9999" y1="46" x2="44.4999" y2="81.5" gradientUnits="userSpaceOnUse"><stop offset="0.02" stop-color="#8FD9FF"/><stop offset="1" stop-color="#E1F5FF" stop-opacity="0"/></linearGradient></defs></svg> 