<svg class="svg-icon" style="width: 1em;height: 1em;vertical-align: middle;fill: currentColor;overflow: hidden;" viewBox="0 0 1024 1024" version="1.1" xmlns="http://www.w3.org/2000/svg"><path d="M512.1 272c7.4 0 13.3-6 13.3-13.3v-93.3c0-7.4-6-13.3-13.3-13.3-7.4 0-13.3 6-13.3 13.3v93.3c0 7.3 5.9 13.3 13.3 13.3zM382.5 233.8l20.4 49.3c2.8 6.8 10.6 10 17.4 7.2 5.1-2.1 8.2-7.1 8.2-12.3 0-1.7-0.3-3.4-1-5.1l-20.4-49.3c-2.8-6.8-10.6-10-17.4-7.2-6.8 2.8-10.1 10.6-7.2 17.4zM328.3 344.2c2.5 2.5 5.9 3.9 9.4 3.9 7.4 0 13.3-6 13.3-13.3 0-3.5-1.4-6.9-3.9-9.4L271.8 250c-5.2-5.2-13.6-5.2-18.9 0-5.2 5.2-5.2 13.6 0 18.8l75.4 75.4zM362.1 184.5c3.1 6.7 11 9.6 17.7 6.6 6.3-2.9 9.4-10.2 7-16.7l-22.3-54.1c-2.8-6.8-10.6-10.1-17.4-7.3-6.8 2.8-10.1 10.6-7.3 17.4l22.3 54.1zM644.8 191.7c6.8 2.8 14.6-0.4 17.4-7.2v-0.1l22.2-54.1c2.8-6.8-0.5-14.6-7.3-17.4-6.8-2.8-14.6 0.5-17.4 7.3l-22.2 54.1c-2.8 6.8 0.5 14.6 7.3 17.4zM733.8 420.1c2.8 6.8 10.6 10 17.4 7.2l49.3-20.4c6.8-2.8 10-10.6 7.2-17.4s-10.6-10-17.4-7.2L741 402.7c-6.8 2.8-10 10.6-7.2 17.4zM686.5 344.2c2.5 2.5 5.9 3.9 9.4 3.9s6.9-1.4 9.4-3.9l66-66c5.2-5.2 5.2-13.6 0-18.9-5.2-5.2-13.6-5.2-18.8 0l-66 66c-5.2 5.2-5.2 13.7 0 18.9zM192 379.3c2.8-6.9-0.4-14.7-7.2-17.5l-54.1-22.2c-6.8-2.8-14.6 0.5-17.4 7.3-2.9 6.8 0.4 14.6 7.2 17.4l54.1 22.2c6.8 2.8 14.5-0.4 17.4-7.2zM603.9 290.2c6.8 2.8 14.5-0.3 17.4-7.1v-0.1l20.4-49.3c2.7-6.9-0.7-14.6-7.5-17.3-6.7-2.6-14.3 0.5-17.1 7.1l-20.4 49.3c-2.8 6.8 0.4 14.6 7.2 17.4zM800.5 616.9l-49.3-20.4c-6.8-2.8-14.6 0.4-17.4 7.2-2.8 6.8 0.4 14.6 7.2 17.4l49.3 20.4c6.8 2.8 14.5-0.3 17.4-7.1v-0.1c2.8-6.8-0.4-14.6-7.2-17.4zM512.1 298.6c-117.6 0-213.3 95.7-213.3 213.3 0 50.3 17.5 96.6 46.7 133.1h35.9c-34.3-33.7-55.7-80.5-55.9-132.2v-0.9c0-100.2 79.3-182.2 178.5-186.4 2.7-0.1 5.4-0.2 8.1-0.2 102.2 0 185.5 82.6 186.6 184.6v1.9c0 52.1-21.4 99.2-55.9 133.1-0.3 0.3-0.7 0.6-1 1 0.3-0.1 0.7-0.1 1-0.1 0.3-0.3 0.6-0.5 0.8-0.8h35.1c29.2-36.5 46.7-82.8 46.7-133.1 0-117.6-95.7-213.3-213.3-213.3zM872 498.6H765.4c-7.4 0-13.3 6-13.3 13.3 0 7.4 6 13.3 13.3 13.3H872c7.4 0 13.3-6 13.3-13.3 0-7.4-6-13.3-13.3-13.3zM832.2 644.6c0 0.1-0.1 0.3-0.2 0.4h36.3l-18.8-7.7c-6.7-2.8-14.5 0.5-17.3 7.3zM911 346.9c-2.8-6.8-10.6-10.1-17.4-7.3l-54.1 22.2c-6.8 2.8-10.1 10.6-7.3 17.4 2.1 5.1 7 8.3 12.4 8.3 1.7 0 3.4-0.3 5.1-1l54-22.2c6.8-2.8 10.1-10.6 7.3-17.4zM283.9 402.9c-0.2-0.1-0.4-0.1-0.5-0.2L234 382.3c-6.9-2.5-14.6 1-17.1 7.9-2.5 6.5 0.5 13.8 6.9 16.7l49.3 20.4c6.7 3 14.6-0.1 17.6-6.8s-0.1-14.6-6.8-17.6zM175 637c-0.1 0.1-0.3 0.2-0.5 0.3l-18.8 7.7h36.6c0-0.1-0.1-0.2-0.1-0.3-2.7-6.8-10.4-10.3-17.2-7.7zM273.1 596.5l-49.3 20.4c-6.9 2.7-10.2 10.4-7.5 17.3 2.7 6.9 10.4 10.2 17.3 7.5 0.1-0.1 0.3-0.1 0.4-0.2l49.3-20.4c6.7-2.8 10-10.6 7.2-17.4-2.8-6.8-10.6-10-17.4-7.2zM272.1 511.9c0-7.4-6-13.3-13.3-13.3H152.2c-7.4 0-13.3 6-13.3 13.3 0 7.4 6 13.3 13.3 13.3h106.6c7.4 0 13.3-6 13.3-13.3z" fill="#231F1F" /><path d="M699.1 517.1c-0.1-2.4-0.3-4.8-0.5-7.2-5.5-68.6-48.1-126.8-107.7-154.5-23.9-11.1-50.6-17.3-78.8-17.3-99.2 0-180.3 77.1-186.7 174.7-0.3 4.1-0.4 8.2-0.4 12.4 0 45.6 16.3 87.3 43.4 119.8h274.3c-0.2 0.2-0.4 0.4-0.7 0.6 0.2 0 0.5 0.1 0.7 0.1 0.3-0.2 0.5-0.5 0.8-0.7h12.3c27.1-32.5 43.4-74.2 43.4-119.8 0.1-2.7 0-5.4-0.1-8.1z" fill="#FFD46C" /><path d="M512.1 324.8c-4 0-8 0.2-11.9 0.4 1.3 0.1 2.5 0.2 3.8 0.3 31.9 2.6 61.6 13.3 86.9 30 50.9 33.4 84.4 91 84.4 156.5 0 52.1-21.3 99.2-55.7 133.1h23l-0.3 0.3c0.3-0.1 0.6-0.1 0.9-0.1 0.1-0.1 0.2-0.1 0.2-0.2 33.2-32.8 54.2-77.9 55.6-127.9 0-1.7 0.1-3.5 0.1-5.2 0.1-103.4-83.7-187.2-187-187.2z" fill="#F49D18" /><path d="M592.7 503.4c-19.9 0-35.9-13.8-36.1-14-1.7-1.5-1.9-4.2-0.4-6 1.5-1.7 4.2-1.9 5.9-0.4 1.2 1.1 30.4 26.2 56.5 0.2 1.6-1.6 4.3-1.6 6 0 1.6 1.6 1.6 4.3 0 6-10.7 10.7-21.8 14.2-31.9 14.2zM431.1 503.4c-10.1 0-21.2-3.5-31.9-14.2-1.6-1.6-1.6-4.3 0-6 1.6-1.6 4.3-1.6 6 0 10.9 10.9 23.7 14.3 37.9 9.9 10.9-3.3 18.5-10 18.6-10.1 1.7-1.5 4.4-1.4 6 0.4 1.5 1.7 1.4 4.4-0.4 6-0.3 0.2-16.2 14-36.2 14z" fill="#231F1F" /><path d="M539.8 567c7.2 2.5 13.6 6.4 20 12.7 1.5 1.5 1.5 3.8 0 5.4-1.4 1.5-3.8 1.5-5.3 0-5.6-5.4-11.1-8.9-17.2-11.1-5.9-2.1-12.5-3-20-3.2-7.7 0.2-14.2 1.1-20.2 3.2-6.1 2.2-11.5 5.7-17.2 11.1-1.5 1.5-3.8 1.5-5.3 0-1.5-1.6-1.5-4 0.1-5.4 6.4-6.3 12.9-10.3 19.9-12.7 14.1-5 31.2-5 45.2 0z" fill="#231F1F" /><path d="M258.6 725.3c-7.4 0-13.3 6-13.3 13.3 0 7.4 6 13.3 13.3 13.3h106.7c7.4 0 13.3-6 13.3-13.3 0-7.4-6-13.3-13.3-13.3H258.6M441.3 738.7c0 7.4 6 13.3 13.3 13.3H748c7.4 0 13.3-6 13.3-13.3 0-7.4-6-13.3-13.3-13.3H454.6c-7.3-0.1-13.3 5.9-13.3 13.3M685.3 885.3H338.6c-7.4 0-13.3 6-13.3 13.3 0 7.4 6 13.3 13.3 13.3h346.7c7.4 0 13.3-6 13.3-13.3 0-7.3-5.9-13.3-13.3-13.3M874.3 645.3H581c-7.4 0-13.3 6-13.3 13.3 0 7.4 6 13.3 13.3 13.3h293.4c7.4 0 13.3-6 13.3-13.3 0-7.3-6-13.3-13.4-13.3M498.6 645.3H205.3c-7.4 0-13.3 6-13.3 13.3 0 7.4 6 13.3 13.3 13.3h293.4c7.4 0 13.3-6 13.3-13.3 0-7.3-6-13.3-13.4-13.3M818.3 805.3H551.6c-7.4 0-13.3 6-13.3 13.3 0 7.4 6 13.3 13.3 13.3h266.7c7.4 0 13.3-6 13.3-13.3 0-7.3-5.9-13.3-13.3-13.3M458.6 818.7c0-7.4-6-13.3-13.3-13.3h-240c-7.4 0-13.3 6-13.3 13.3 0 7.4 6 13.3 13.3 13.3h240c7.3 0 13.3-6 13.3-13.3" fill="#231F1F" /><path d="M149 659m-16 0a16 16 0 1 0 32 0 16 16 0 1 0-32 0Z" fill="#231F1F" /><path d="M538 659m-16 0a16 16 0 1 0 32 0 16 16 0 1 0-32 0Z" fill="#231F1F" /><path d="M916 659m-16 0a16 16 0 1 0 32 0 16 16 0 1 0-32 0Z" fill="#231F1F" /><path d="M405 739m-16 0a16 16 0 1 0 32 0 16 16 0 1 0-32 0Z" fill="#231F1F" /><path d="M800 736m-16 0a16 16 0 1 0 32 0 16 16 0 1 0-32 0Z" fill="#231F1F" /><path d="M200 739m-16 0a16 16 0 1 0 32 0 16 16 0 1 0-32 0Z" fill="#231F1F" /><path d="M496 816m-16 0a16 16 0 1 0 32 0 16 16 0 1 0-32 0Z" fill="#231F1F" /></svg>