<?xml version="1.0"?><svg style="enable-background:new 0 0 685.309 684.87;" version="1.1" viewBox="0 0 685.309 684.87" xml:space="preserve" xmlns="http://www.w3.org/2000/svg" xmlns:xlink="http://www.w3.org/1999/xlink"><g id="_x32_-Snowing"><g><g><path d="M548.323,122.791C519.874,48.792,449.514,0,369.132,0c-96.46,0-176.54,71.453-190.092,164.216     c-10.541-2.395-21.311-3.602-32.234-3.602C65.858,160.614,0,226.472,0,307.42s65.858,146.806,146.806,146.806h371.422     c92.131,0,167.082-74.956,167.082-167.087C685.309,205.365,627.335,137.018,548.323,122.791z" style="fill:#00BBD3;"/></g><g><path d="M548.323,122.791C519.874,48.792,449.514,0,369.132,0c-13.683,0-26.984,1.584-39.867,4.319     c62.899,13.333,115.199,57.221,138.749,118.472c79.013,14.227,136.986,82.574,136.986,164.347     c0,92.131-74.95,167.087-167.082,167.087h80.31c92.131,0,167.082-74.956,167.082-167.087     C685.309,205.365,627.335,137.018,548.323,122.791z" style="fill:#00ABC0;"/></g><g><path d="M585.204,530.865l-13.001-7.508l13.001-7.503c7.681-4.434,10.316-14.263,5.877-21.944     c-4.434-7.681-14.242-10.316-21.939-5.877l-13.003,7.508v-15.016c0-8.868-7.189-16.062-16.062-16.062     s-16.062,7.194-16.062,16.062v15.011l-12.998-7.503c-7.681-4.439-17.5-1.804-21.939,5.877s-1.804,17.51,5.877,21.944     l13.001,7.503l-13.001,7.508c-7.681,4.434-10.316,14.258-5.877,21.939c2.975,5.155,8.371,8.036,13.923,8.036     c2.724,0,5.485-0.695,8.015-2.154l12.998-7.508v15.011c0,8.873,7.189,16.062,16.062,16.062s16.062-7.189,16.062-16.062v-15.011     l13.003,7.508c2.531,1.459,5.291,2.154,8.015,2.154c5.553,0,10.948-2.881,13.923-8.036     C595.52,545.123,592.885,535.298,585.204,530.865z" style="fill:#80D3F9;"/></g><g><path d="M387.776,633.484l-12.998-7.508l12.998-7.508c7.681-4.434,10.316-14.258,5.877-21.939     c-4.434-7.681-14.248-10.311-21.939-5.877l-12.998,7.503v-15.011c0-8.868-7.189-16.062-16.062-16.062     c-8.873,0-16.062,7.194-16.062,16.062v15.011l-12.998-7.503c-7.686-4.434-17.5-1.804-21.939,5.877     c-4.439,7.681-1.804,17.505,5.877,21.939l12.998,7.508l-12.998,7.508c-7.681,4.434-10.316,14.258-5.877,21.939     c2.975,5.155,8.371,8.031,13.923,8.031c2.724,0,5.485-0.69,8.015-2.154l12.998-7.503v15.011c0,8.868,7.189,16.062,16.062,16.062     c8.873,0,16.062-7.194,16.062-16.062v-15.011l12.998,7.503c2.531,1.464,5.291,2.154,8.015,2.154     c5.553,0,10.948-2.876,13.923-8.031C398.092,647.742,395.457,637.918,387.776,633.484z" style="fill:#80D3F9;"/></g><g><path d="M188.116,530.865l-13.001-7.508l13.001-7.503c7.681-4.434,10.316-14.263,5.877-21.944     c-4.434-7.681-14.242-10.316-21.939-5.877l-12.998,7.503v-15.011c0-8.868-7.189-16.062-16.062-16.062     s-16.062,7.194-16.062,16.062v15.016l-13.003-7.508c-7.686-4.439-17.505-1.804-21.939,5.877     c-4.439,7.681-1.804,17.51,5.877,21.944l13.001,7.503l-13.001,7.508c-7.681,4.434-10.316,14.258-5.877,21.939     c2.975,5.155,8.371,8.036,13.923,8.036c2.724,0,5.485-0.695,8.015-2.154l13.003-7.508v15.011c0,8.873,7.189,16.062,16.062,16.062     s16.062-7.189,16.062-16.062v-15.011l12.998,7.508c2.531,1.459,5.291,2.154,8.015,2.154c5.553,0,10.948-2.881,13.923-8.036     C198.432,545.123,195.797,535.298,188.116,530.865z" style="fill:#80D3F9;"/></g><g><g><path d="M342.655,536.243c-5.678,0-11.137-2.248-15.1-6.211c-4.068-3.962-6.316-9.529-6.316-15.204      c0-5.568,2.248-11.137,6.211-15.099c8.031-7.924,22.378-7.924,30.299,0c4.073,3.962,6.321,9.53,6.321,15.099      c0,5.676-2.248,11.243-6.321,15.204C353.791,533.995,348.223,536.243,342.655,536.243z" style="fill:#039AE4;"/></g></g><g><g><path d="M142.952,668.808c-5.568,0-11.137-2.25-15.1-6.211c-3.963-4.069-6.316-9.529-6.316-15.204      s2.353-11.137,6.316-15.099c7.921-8.031,22.273-8.031,30.304,0c3.958,3.962,6.211,9.423,6.211,15.099      s-2.253,11.135-6.211,15.099C154.193,666.558,148.625,668.808,142.952,668.808z" style="fill:#039AE4;"/></g></g><g><g><path d="M540.109,668.808c-5.678,0-11.137-2.25-15.204-6.211c-3.963-4.069-6.211-9.529-6.211-15.204      s2.248-11.137,6.211-15.099c7.921-8.031,22.378-8.031,30.304,0c3.958,3.962,6.316,9.423,6.316,15.099      c0,5.568-2.358,11.135-6.316,15.099C551.245,666.558,545.677,668.808,540.109,668.808z" style="fill:#039AE4;"/></g></g></g></g><g id="Layer_1"/></svg>